<svg width="100" height="100" viewBox="0 0 100 100" fill="none" xmlns="http://www.w3.org/2000/svg">
<rect width="100" height="100" rx="24" fill="black"/>
<path fill-rule="evenodd" clip-rule="evenodd" d="M84.7387 25.4901C87.1312 28.1703 87.9121 31.9234 86.7871 35.3355L73.5274 75.5538C71.047 83.0773 61.2458 84.9121 56.2119 78.7953L53.7548 75.8098C51.5632 73.1467 50.8892 69.5462 51.9691 66.2707L65.1727 26.2226C67.5966 18.8705 77.0705 16.8994 82.2256 22.6746L84.7387 25.4901Z" fill="white"/>
<path fill-rule="evenodd" clip-rule="evenodd" d="M22.4196 30.1753C19.4439 30.7944 17.0245 32.9541 16.0728 35.8407V35.8407C13.9124 42.3934 20.0406 48.6572 26.639 46.6406L29.148 45.8738C31.7531 45.0776 33.8094 43.0659 34.6623 40.4788V40.4788C36.684 34.3468 31.3094 28.3258 24.9881 29.6409L22.4196 30.1753Z" fill="white"/>
<path fill-rule="evenodd" clip-rule="evenodd" d="M45.5178 65.7653C47.9103 68.4456 48.6912 72.1987 47.5662 75.6108L46.3854 79.1923C43.9615 86.5444 34.4877 88.5155 29.3325 82.7402L17.9268 69.9625C15.5343 67.2823 14.7535 63.5292 15.8784 60.1171L17.0592 56.5355C19.4832 49.1834 28.957 47.2124 34.1121 52.9876L45.5178 65.7653Z" fill="white"/>
</svg>
